<svg xmlns="http://www.w3.org/2000/svg" viewBox="0 0 25.8 23.151" width="20" height="20" class="w-4 h-4 mr-1"><g id="half-star_svg__Group" transform="translate(-79.328 2)"><g id="half-star_svg__spacer" fill="rgba(255,255,255,0) " stroke="rgba(0,0,0,0)"><path d="M0 0h25.8v23.151H0z" stroke="none" transform="translate(79.328 -2)"></path><path d="M.5.5h24.8v22.151H.5z" fill="none" transform="translate(79.328 -2)"></path></g><g id="half-star_svg__Group_6409"><path id="half-star_svg__Path_22905" d="M376.532 68.9l3.923 3.1a1.218 1.218 0 0 1 .446 1.265l-1.2 4.631a1.36 1.36 0 0 0 2.066 1.384l4.405-2.484a1.482 1.482 0 0 1 1.442 0l4.405 2.484a1.36 1.36 0 0 0 2.066-1.384l-1.2-4.631A1.218 1.218 0 0 1 393.33 72l3.923-3.1a1.256 1.256 0 0 0-.789-2.24l-5.147-.378a1.379 1.379 0 0 1-1.167-.782l-1.981-4.4a1.43 1.43 0 0 0-2.554 0l-1.981 4.4a1.379 1.379 0 0 1-1.167.782l-5.147.378a1.256 1.256 0 0 0-.788 2.24z" fill="#e7eaf0" transform="translate(-294.61 -60.316)"></path><path fill="#f4b146" id="half-star_svg__Subtraction_1" d="M3309.754-9456.849a1.444 1.444 0 0 1-1.136-.545 1.173 1.173 0 0 1-.212-1.03l1.2-4.632a1.212 1.212 0 0 0-.445-1.266l-3.923-3.095a1.2 1.2 0 0 1-.432-1.314 1.348 1.348 0 0 1 1.22-.927l5.148-.378a1.368 1.368 0 0 0 1.166-.78l1.981-4.4a1.368 1.368 0 0 1 1.278-.785h.078v16.289h-.08a1.454 1.454 0 0 0-.72.188l-4.406 2.483a1.464 1.464 0 0 1-.717.192z" transform="translate(-3223.425 9476)"></path></g></g></svg>