<svg xmlns="http://www.w3.org/2000/svg" width="41" height="39" viewBox="0 0 41 39" fill="none" class="w-4 h-4 mr-1"><path d="M20.026.28a.503.503 0 0 1 .903 0l5.938 12.032a.503.503 0 0 0 .379.276l13.277 1.929c.413.06.578.567.28.858l-9.609 9.366a.503.503 0 0 0-.144.445l2.268 13.224a.503.503 0 0 1-.73.53l-11.876-6.243a.504.504 0 0 0-.469 0L8.367 38.941a.503.503 0 0 1-.73-.53l2.268-13.225a.503.503 0 0 0-.144-.445L.153 15.375a.503.503 0 0 1 .279-.858l13.277-1.93a.503.503 0 0 0 .38-.275L20.025.28z" fill="#E5E5E5"></path></svg>